<svg width="42" height="42" viewBox="0 0 42 42" fill="none" xmlns="http://www.w3.org/2000/svg">
<path fill-rule="evenodd" clip-rule="evenodd" d="M24.3375 6.80276C24.739 7.30131 24.6708 6.82356 25.0028 6.93823C25.7508 7.1966 26.4059 7.31687 27.1914 6.93823C27.8507 6.30242 29.2371 6.3043 30.1683 6.30556C32.8613 6.30921 35.5544 6.30567 38.2475 6.30567C39.7567 6.30567 40.9501 7.4959 40.9501 8.92814C40.9501 10.3604 39.7567 11.5506 38.2475 11.5506H13.5364C13.3722 11.5506 13.154 11.3469 12.9631 11.1687C12.8411 11.0549 12.7303 10.9515 12.6519 10.9182C12.5657 10.9603 12.5118 11.0949 12.458 11.2291C12.3936 11.3901 12.3293 11.5506 12.2097 11.5506H3.75264C2.24344 11.5506 1.05005 10.3604 1.05005 8.92814C1.05005 7.4959 2.24344 6.30567 3.75264 6.30567H21C21.9994 6.28322 24.0498 6.30575 24.3375 6.80276ZM5.7557 9.36806C4.54661 8.7578 6.36025 8.14753 6.96479 7.98834C7.50884 7.84509 8.05297 8.7578 7.56934 8.7578C7.34428 8.7578 7.203 8.92695 7.05194 9.10783C6.79722 9.41282 6.51467 9.75114 5.7557 9.36806Z" fill="#101010"/>
<path fill-rule="evenodd" clip-rule="evenodd" d="M13.7622 23.5129C13.0142 23.2545 12.3591 23.1343 11.5736 23.5129C10.9143 24.1487 9.52788 24.1469 8.59671 24.1456C5.90366 24.1419 6.44571 24.1455 3.75266 24.1455C2.24347 24.1455 1.05007 22.9553 1.05007 21.523C1.05007 20.0908 2.24347 18.9005 3.75266 18.9005L29.5421 18.9005C29.8112 18.9005 29.9651 19.8653 30.1663 19.9506C30.3559 19.8581 30.6494 18.9005 30.8688 18.9005L38.2475 18.9005C39.7567 18.9005 40.9501 20.0908 40.9501 21.523C40.9501 22.9553 39.7567 24.1455 38.2475 24.1455L17.7649 24.1455C16.3486 24.1773 14.8761 23.8976 13.7622 23.5129ZM35.166 22.1332C36.3751 22.7435 34.5452 22.9418 33.9406 23.101C33.3966 23.2442 32.8688 22.7435 33.3524 22.7435C33.5775 22.7435 34.3287 22.7568 34.4798 22.5759C34.7345 22.2709 34.4071 21.7501 35.166 22.1332Z" fill="#101010"/>
<path fill-rule="evenodd" clip-rule="evenodd" d="M17.6626 36.2458C17.2611 35.7473 17.3294 36.225 16.9974 36.1104C16.2493 35.852 15.5942 35.7317 14.8087 36.1104C14.1494 36.7462 12.763 36.7443 11.8318 36.743C9.1388 36.7394 6.44571 36.7429 3.75266 36.7429C2.24347 36.7429 1.05007 35.5527 1.05007 34.1204C1.05007 32.6882 2.24347 31.498 3.75266 31.498L15.5232 31.498C15.6874 31.498 15.9056 31.7017 16.0965 31.8799C16.2185 31.9937 16.3292 32.0971 16.4077 32.1304C16.4939 32.0883 16.5478 31.9537 16.6015 31.8195C16.666 31.6585 16.7303 31.498 16.8499 31.498L38.2475 31.498C39.7567 31.498 40.9501 32.6882 40.9501 34.1204C40.9501 35.5527 39.7567 36.7429 38.2475 36.7429L21.0001 36.7429C20.0007 36.7654 17.9503 36.7428 17.6626 36.2458ZM18.9904 33.6805C20.1995 34.2908 18.3858 34.9011 17.7813 35.0602C17.2372 35.2035 16.6931 34.2908 17.1767 34.2908C17.4018 34.2908 17.5431 34.1216 17.6941 33.9407C17.9488 33.6358 18.2314 33.2974 18.9904 33.6805Z" fill="#101010"/>
</svg>
